<svg width="555" height="555" viewBox="0 0 555 555" fill="none" xmlns="http://www.w3.org/2000/svg">
  <path
    d="M544.78 277.498C549.87 277.498 554.012 273.369 553.843 268.281C551.511 198.295 522.689 131.661 473.012 81.9844C421.158 30.131 350.83 1.00001 277.498 1C204.166 0.999994 133.838 30.1309 81.9844 81.9844C32.3074 131.661 3.48547 198.295 1.15349 268.281C0.983977 273.368 5.12639 277.498 10.2165 277.498H84.1338C89.224 277.498 93.3263 273.369 93.5807 268.285C95.8574 222.801 114.929 179.643 147.286 147.286C181.82 112.752 228.659 93.3503 277.498 93.3503C326.337 93.3503 373.176 112.752 407.71 147.286C440.067 179.643 459.139 222.801 461.415 268.285C461.67 273.369 465.772 277.498 470.862 277.498H544.78Z"
    fill="white" stroke="#B8B8B8" stroke-width="1.84331" />
  <path
    d="M250.229 56.9446V55.5652H252.335V45.2758H250.229V43.8964H255.895V45.2758H253.789V55.5652H255.895V56.9446H250.229ZM262.519 57.131C261.636 57.131 260.841 56.9135 260.133 56.4786C259.437 56.0436 258.884 55.4471 258.474 54.6891C258.076 53.9187 257.877 53.0488 257.877 52.0795C257.877 51.0978 258.082 50.2279 258.493 49.4699C258.903 48.6994 259.456 48.0967 260.151 47.6618C260.847 47.2268 261.63 47.0093 262.5 47.0093C262.985 47.0093 263.451 47.0839 263.898 47.233C264.358 47.3822 264.768 47.5934 265.128 47.8668C265.489 48.1278 265.787 48.4322 266.023 48.7802C266.259 49.1157 266.402 49.4699 266.452 49.8427L266.023 49.6935V43.1508H267.421V56.9446H266.042L266.005 54.5214L266.359 54.3909C266.309 54.7388 266.166 55.0806 265.93 55.4161C265.706 55.7392 265.42 56.0312 265.073 56.2922C264.725 56.5531 264.327 56.7582 263.88 56.9073C263.445 57.0564 262.991 57.131 262.519 57.131ZM262.724 55.8448C263.37 55.8448 263.948 55.6833 264.457 55.3602C264.967 55.0371 265.365 54.5897 265.65 54.0181C265.949 53.4464 266.098 52.794 266.098 52.0608C266.098 51.3277 265.949 50.6815 265.65 50.1223C265.365 49.5506 264.967 49.1033 264.457 48.7802C263.948 48.4446 263.37 48.2769 262.724 48.2769C262.053 48.2769 261.463 48.4446 260.953 48.7802C260.456 49.1033 260.058 49.5506 259.76 50.1223C259.474 50.6815 259.331 51.3277 259.331 52.0608C259.331 52.7816 259.474 53.4278 259.76 53.9994C260.046 54.5711 260.444 55.0246 260.953 55.3602C261.463 55.6833 262.053 55.8448 262.724 55.8448ZM274.432 57.131C273.462 57.131 272.599 56.9197 271.841 56.4972C271.095 56.0747 270.511 55.4844 270.088 54.7264C269.666 53.9684 269.455 53.0985 269.455 52.1168C269.455 51.3587 269.573 50.6753 269.809 50.0663C270.045 49.445 270.374 48.9044 270.797 48.4446C271.232 47.9849 271.747 47.6307 272.344 47.3822C272.94 47.1212 273.587 46.9907 274.283 46.9907C274.941 46.9907 275.538 47.1088 276.072 47.3449C276.619 47.581 277.085 47.9103 277.47 48.3328C277.868 48.7429 278.166 49.2337 278.365 49.8054C278.564 50.377 278.651 51.0046 278.626 51.688L278.607 52.3404H270.499L270.294 51.1661H277.545L277.209 51.483V51.0356C277.184 50.5883 277.054 50.1595 276.818 49.7495C276.581 49.3269 276.246 48.9852 275.811 48.7242C275.389 48.4633 274.879 48.3328 274.283 48.3328C273.587 48.3328 272.984 48.4757 272.474 48.7615C271.965 49.0349 271.573 49.445 271.3 49.9918C271.027 50.5386 270.89 51.2158 270.89 52.0236C270.89 52.794 271.039 53.4651 271.337 54.0367C271.636 54.5959 272.058 55.0309 272.605 55.3415C273.164 55.6522 273.835 55.8075 274.618 55.8075C275.078 55.8075 275.531 55.733 275.979 55.5838C276.439 55.4223 276.942 55.1116 277.489 54.6518L278.216 55.6584C277.93 55.9442 277.588 56.199 277.19 56.4227C276.793 56.6339 276.358 56.8079 275.886 56.9446C275.413 57.0688 274.929 57.131 274.432 57.131ZM280.611 56.9446V47.2144H281.991L282.047 49.2462L281.823 49.3394C281.947 48.9169 282.19 48.5316 282.55 48.1837C282.91 47.8357 283.339 47.5561 283.836 47.3449C284.346 47.1212 284.867 47.0093 285.402 47.0093C286.123 47.0093 286.725 47.1523 287.21 47.4381C287.695 47.7239 288.061 48.165 288.31 48.7615C288.558 49.358 288.683 50.116 288.683 51.0356V56.9446H287.266V51.1102C287.266 50.464 287.179 49.9359 287.005 49.5258C286.843 49.1033 286.589 48.7926 286.241 48.5938C285.893 48.3949 285.464 48.3017 284.954 48.3142C284.532 48.3142 284.141 48.3887 283.78 48.5378C283.42 48.6745 283.109 48.8672 282.848 49.1157C282.587 49.3642 282.382 49.65 282.233 49.9731C282.084 50.2962 282.009 50.6442 282.009 51.017V56.9446H281.32C281.233 56.9446 281.133 56.9446 281.021 56.9446C280.91 56.9446 280.773 56.9446 280.611 56.9446ZM292.693 56.9446V44.6607H294.091V56.9446H292.693ZM290.494 48.5565V47.2144H296.552V48.5565H290.494ZM298.641 56.9446V47.2144H300.039V56.9446H298.641ZM299.331 45.108C298.983 45.108 298.716 45.0211 298.53 44.8471C298.356 44.6607 298.269 44.4121 298.269 44.1015C298.269 43.7908 298.362 43.5423 298.548 43.3559C298.735 43.1695 298.996 43.0763 299.331 43.0763C299.667 43.0763 299.928 43.1695 300.114 43.3559C300.3 43.5298 300.394 43.7784 300.394 44.1015C300.394 44.3997 300.3 44.642 300.114 44.8284C299.928 45.0148 299.667 45.108 299.331 45.108ZM304.435 56.9446V44.6607H305.833V56.9446H304.435ZM302.235 48.5565V47.2144H308.293V48.5565H302.235ZM311.65 61.2318L313.533 56.6463L313.663 57.9698L308.779 47.2144H310.364L313.7 54.6705C313.8 54.8693 313.899 55.1054 313.999 55.3788C314.098 55.6398 314.191 55.9007 314.278 56.1617L313.756 56.1058C313.843 55.8945 313.924 55.677 313.999 55.4534C314.086 55.2297 314.166 55.0122 314.241 54.801L317.168 47.2144H318.771L314.837 56.9446L313.16 61.2318H311.65Z"
    fill="#6A6C72" />
  <path
    d="M544.78 277.498C549.87 277.498 554.012 281.628 553.843 286.715C551.511 356.701 522.689 423.335 473.012 473.012C421.158 524.865 350.83 553.996 277.498 553.996C204.166 553.996 133.838 524.865 81.9844 473.012C32.3074 423.335 3.48547 356.701 1.15349 286.715C0.983977 281.628 5.12639 277.498 10.2165 277.498H84.1338C89.224 277.498 93.3263 281.627 93.5807 286.711C95.8574 332.196 114.929 375.354 147.286 407.71C181.82 442.245 228.659 461.646 277.498 461.646C326.337 461.646 373.176 442.245 407.71 407.71C440.067 375.354 459.139 332.195 461.415 286.711C461.67 281.627 465.772 277.498 470.862 277.498H544.78Z"
    fill="white" stroke="#B8B8B8" stroke-width="1.84331" />
  <path
    d="M234.516 517.772V504.724H239.81C240.568 504.724 241.22 504.86 241.767 505.134C242.326 505.395 242.755 505.774 243.053 506.271C243.352 506.756 243.501 507.333 243.501 508.004C243.501 508.725 243.296 509.347 242.886 509.868C242.475 510.378 241.916 510.732 241.208 510.931L241.171 510.577C241.78 510.689 242.308 510.906 242.755 511.229C243.202 511.54 243.55 511.925 243.799 512.385C244.06 512.845 244.19 513.36 244.19 513.932C244.19 514.516 244.091 515.044 243.892 515.516C243.693 515.989 243.407 516.393 243.035 516.728C242.674 517.064 242.233 517.325 241.711 517.511C241.202 517.685 240.63 517.772 239.996 517.772H234.516ZM235.97 516.355H239.884C240.444 516.355 240.928 516.262 241.338 516.076C241.761 515.877 242.084 515.597 242.308 515.237C242.544 514.876 242.662 514.46 242.662 513.988C242.662 513.541 242.538 513.149 242.289 512.814C242.053 512.478 241.717 512.217 241.283 512.031C240.86 511.844 240.363 511.751 239.791 511.751H235.97V516.355ZM235.97 510.334H239.698C240.145 510.334 240.543 510.247 240.891 510.074C241.239 509.887 241.512 509.639 241.711 509.328C241.91 509.005 242.009 508.644 242.009 508.247C242.009 507.613 241.792 507.103 241.357 506.718C240.935 506.333 240.338 506.14 239.568 506.14H235.97V510.334ZM250.732 517.958C249.762 517.958 248.899 517.747 248.141 517.325C247.395 516.902 246.811 516.312 246.388 515.554C245.966 514.796 245.755 513.926 245.755 512.944C245.755 512.186 245.873 511.503 246.109 510.894C246.345 510.272 246.674 509.732 247.097 509.272C247.532 508.812 248.047 508.458 248.644 508.209C249.24 507.949 249.887 507.818 250.583 507.818C251.241 507.818 251.838 507.936 252.372 508.172C252.919 508.408 253.385 508.738 253.77 509.16C254.168 509.57 254.466 510.061 254.665 510.633C254.864 511.204 254.951 511.832 254.926 512.515L254.907 513.168H246.799L246.594 511.993H253.845L253.509 512.31V511.863C253.484 511.416 253.354 510.987 253.118 510.577C252.881 510.154 252.546 509.813 252.111 509.552C251.688 509.291 251.179 509.16 250.583 509.16C249.887 509.16 249.284 509.303 248.774 509.589C248.265 509.862 247.873 510.272 247.6 510.819C247.327 511.366 247.19 512.043 247.19 512.851C247.19 513.621 247.339 514.292 247.637 514.864C247.936 515.423 248.358 515.858 248.905 516.169C249.464 516.48 250.135 516.635 250.918 516.635C251.378 516.635 251.831 516.56 252.279 516.411C252.739 516.25 253.242 515.939 253.789 515.479L254.516 516.486C254.23 516.772 253.888 517.026 253.49 517.25C253.093 517.461 252.658 517.635 252.186 517.772C251.713 517.896 251.229 517.958 250.732 517.958ZM256.911 517.772V503.978H258.309V510.167L258.03 510.446C258.166 509.937 258.421 509.489 258.794 509.104C259.167 508.707 259.602 508.396 260.099 508.172C260.608 507.949 261.124 507.837 261.646 507.837C262.392 507.837 263.013 507.98 263.51 508.265C264.007 508.551 264.374 508.992 264.61 509.589C264.858 510.185 264.983 510.943 264.983 511.863V517.772H263.566V511.938C263.566 511.291 263.479 510.763 263.305 510.353C263.143 509.931 262.889 509.62 262.541 509.421C262.193 509.222 261.758 509.129 261.236 509.141C260.826 509.141 260.441 509.216 260.08 509.365C259.72 509.502 259.409 509.694 259.148 509.943C258.887 510.192 258.682 510.477 258.533 510.8C258.384 511.124 258.309 511.472 258.309 511.844V517.772H257.62C257.533 517.772 257.433 517.772 257.321 517.772C257.21 517.772 257.073 517.772 256.911 517.772ZM271.454 517.958C270.609 517.958 269.845 517.741 269.161 517.306C268.478 516.859 267.937 516.256 267.539 515.498C267.142 514.727 266.943 513.857 266.943 512.888C266.943 511.906 267.148 511.037 267.558 510.279C267.968 509.521 268.515 508.924 269.198 508.489C269.894 508.054 270.671 507.837 271.528 507.837C272.038 507.837 272.51 507.911 272.945 508.06C273.38 508.209 273.765 508.421 274.101 508.694C274.449 508.955 274.735 509.266 274.958 509.626C275.194 509.974 275.356 510.353 275.443 510.763L275.033 510.558L275.089 508.042H276.487V517.772H275.07V515.386L275.443 515.144C275.356 515.516 275.188 515.877 274.94 516.225C274.691 516.56 274.387 516.859 274.026 517.12C273.678 517.38 273.281 517.586 272.833 517.735C272.398 517.884 271.939 517.958 271.454 517.958ZM271.771 516.616C272.417 516.616 272.995 516.461 273.504 516.15C274.014 515.827 274.411 515.386 274.697 514.827C274.996 514.255 275.145 513.609 275.145 512.888C275.145 512.167 274.996 511.527 274.697 510.968C274.411 510.409 274.014 509.968 273.504 509.645C272.995 509.322 272.417 509.16 271.771 509.16C271.112 509.16 270.528 509.322 270.019 509.645C269.521 509.968 269.124 510.409 268.826 510.968C268.54 511.527 268.397 512.167 268.397 512.888C268.397 513.597 268.54 514.236 268.826 514.808C269.111 515.367 269.509 515.808 270.019 516.132C270.528 516.455 271.112 516.616 271.771 516.616ZM282.012 517.772L277.911 508.042H279.458L282.701 516.001L282.329 516.206L285.889 508.042H287.38L283.018 517.772H282.012ZM289.395 517.772V508.042H290.793V517.772H289.395ZM290.084 505.935C289.737 505.935 289.469 505.848 289.283 505.674C289.109 505.488 289.022 505.239 289.022 504.929C289.022 504.618 289.115 504.37 289.302 504.183C289.488 503.997 289.749 503.904 290.084 503.904C290.42 503.904 290.681 503.997 290.867 504.183C291.054 504.357 291.147 504.606 291.147 504.929C291.147 505.227 291.054 505.469 290.867 505.656C290.681 505.842 290.42 505.935 290.084 505.935ZM298.152 517.958C297.182 517.958 296.319 517.741 295.561 517.306C294.815 516.871 294.225 516.268 293.79 515.498C293.367 514.727 293.156 513.851 293.156 512.87C293.156 511.9 293.367 511.037 293.79 510.279C294.225 509.521 294.815 508.924 295.561 508.489C296.319 508.054 297.182 507.837 298.152 507.837C299.109 507.837 299.96 508.054 300.705 508.489C301.463 508.924 302.054 509.521 302.476 510.279C302.911 511.037 303.129 511.9 303.129 512.87C303.129 513.851 302.911 514.727 302.476 515.498C302.054 516.268 301.463 516.871 300.705 517.306C299.96 517.741 299.109 517.958 298.152 517.958ZM298.152 516.635C298.835 516.635 299.444 516.473 299.978 516.15C300.513 515.815 300.929 515.367 301.227 514.808C301.526 514.236 301.675 513.59 301.675 512.87C301.675 512.149 301.526 511.509 301.227 510.95C300.929 510.39 300.513 509.955 299.978 509.645C299.444 509.322 298.835 509.16 298.152 509.16C297.468 509.16 296.853 509.322 296.306 509.645C295.772 509.955 295.349 510.397 295.039 510.968C294.741 511.527 294.598 512.161 294.61 512.87C294.598 513.59 294.741 514.236 295.039 514.808C295.349 515.367 295.772 515.815 296.306 516.15C296.853 516.473 297.468 516.635 298.152 516.635ZM305.168 517.772V508.042H306.566L306.604 510.633L306.454 510.279C306.591 509.844 306.809 509.44 307.107 509.067C307.418 508.694 307.784 508.396 308.207 508.172C308.629 507.949 309.095 507.837 309.605 507.837C309.816 507.837 310.015 507.855 310.201 507.893C310.388 507.917 310.543 507.955 310.667 508.004L310.276 509.57C310.114 509.496 309.946 509.446 309.772 509.421C309.611 509.384 309.456 509.365 309.306 509.365C308.884 509.365 308.505 509.44 308.169 509.589C307.834 509.738 307.548 509.949 307.312 510.223C307.076 510.484 306.896 510.788 306.771 511.136C306.647 511.484 306.585 511.857 306.585 512.254V517.772H305.168Z"
    fill="#6A6C72" />
  <g clip-path="url(#clip0_6_6645)">
    <path
      d="M125.678 364.887C121.269 367.432 119.74 373.083 122.502 377.359C138.343 401.879 159.809 422.325 185.166 436.965C213.188 453.144 244.975 461.661 277.332 461.661C309.689 461.661 341.476 453.144 369.498 436.965C394.855 422.325 416.321 401.879 432.162 377.359C434.925 373.083 433.395 367.432 428.987 364.887L365.132 328.02C360.724 325.475 355.123 327.018 352.151 331.15C344.543 341.726 334.758 350.599 323.415 357.147C309.404 365.236 293.511 369.495 277.332 369.495C261.154 369.495 245.26 365.236 231.249 357.147C219.906 350.599 210.121 341.726 202.513 331.15C199.541 327.018 193.94 325.475 189.532 328.02L125.678 364.887Z"
      fill="white" stroke="#B8B8B8" stroke-width="1.84331" />
    <path
      d="M262.342 422.39V410.758H258.614V409.342H267.673V410.758H263.796V422.39H262.342ZM268.462 422.39V412.66H269.86L269.897 415.251L269.748 414.897C269.885 414.462 270.102 414.058 270.401 413.685C270.711 413.312 271.078 413.014 271.5 412.79C271.923 412.567 272.389 412.455 272.899 412.455C273.11 412.455 273.309 412.473 273.495 412.511C273.681 412.535 273.837 412.573 273.961 412.622L273.57 414.188C273.408 414.114 273.24 414.064 273.066 414.039C272.905 414.002 272.749 413.983 272.6 413.983C272.178 413.983 271.799 414.058 271.463 414.207C271.128 414.356 270.842 414.567 270.606 414.841C270.37 415.102 270.189 415.406 270.065 415.754C269.941 416.102 269.879 416.475 269.879 416.872V422.39H268.462ZM278.8 422.576C277.955 422.576 277.19 422.359 276.507 421.924C275.824 421.477 275.283 420.874 274.885 420.116C274.488 419.345 274.289 418.476 274.289 417.506C274.289 416.525 274.494 415.655 274.904 414.897C275.314 414.139 275.861 413.542 276.544 413.107C277.24 412.672 278.017 412.455 278.874 412.455C279.384 412.455 279.856 412.529 280.291 412.678C280.726 412.828 281.111 413.039 281.447 413.312C281.795 413.573 282.08 413.884 282.304 414.244C282.54 414.592 282.702 414.971 282.789 415.381L282.379 415.176L282.435 412.66H283.833V422.39H282.416V420.004L282.789 419.762C282.702 420.134 282.534 420.495 282.285 420.843C282.037 421.178 281.732 421.477 281.372 421.738C281.024 421.999 280.626 422.204 280.179 422.353C279.744 422.502 279.284 422.576 278.8 422.576ZM279.117 421.234C279.763 421.234 280.341 421.079 280.85 420.768C281.36 420.445 281.757 420.004 282.043 419.445C282.341 418.873 282.491 418.227 282.491 417.506C282.491 416.785 282.341 416.145 282.043 415.586C281.757 415.027 281.36 414.586 280.85 414.263C280.341 413.94 279.763 413.778 279.117 413.778C278.458 413.778 277.874 413.94 277.364 414.263C276.867 414.586 276.47 415.027 276.171 415.586C275.886 416.145 275.743 416.785 275.743 417.506C275.743 418.215 275.886 418.855 276.171 419.426C276.457 419.985 276.855 420.427 277.364 420.75C277.874 421.073 278.458 421.234 279.117 421.234ZM286.929 422.39V412.66H288.327V422.39H286.929ZM287.619 410.553C287.271 410.553 287.004 410.466 286.817 410.292C286.643 410.106 286.556 409.858 286.556 409.547C286.556 409.236 286.649 408.988 286.836 408.801C287.022 408.615 287.283 408.522 287.619 408.522C287.954 408.522 288.215 408.615 288.402 408.801C288.588 408.975 288.681 409.224 288.681 409.547C288.681 409.845 288.588 410.087 288.402 410.274C288.215 410.46 287.954 410.553 287.619 410.553ZM292.722 422.39V410.106H294.12V422.39H292.722ZM290.523 414.002V412.66H296.581V414.002H290.523Z"
      fill="#6A6C72" />
  </g>
  <path
    d="M429.152 365.055C433.561 367.601 439.22 366.1 441.541 361.57C454.856 335.591 461.83 306.778 461.83 277.498C461.83 245.141 453.313 213.354 437.134 185.332C420.956 157.31 397.686 134.04 369.664 117.862C344.307 103.222 315.867 94.8549 286.711 93.396C281.627 93.1417 277.498 97.2921 277.498 102.382L277.498 176.115C277.498 181.205 281.635 185.284 286.699 185.792C299.662 187.093 312.238 191.131 323.581 197.68C337.592 205.769 349.227 217.404 357.316 231.415C365.405 245.426 369.664 261.319 369.664 277.498C369.664 290.595 366.873 303.506 361.518 315.382C359.426 320.022 360.89 325.644 365.298 328.189L429.152 365.055Z"
    fill="white" stroke="#B8B8B8" stroke-width="1.84331" />
  <path
    d="M375.387 240.41V227.361H383.29V228.778H376.841V238.993H383.253V240.41H375.387ZM376.058 234.407V232.991H382.246V234.407H376.058ZM385.968 240.41V230.679H387.366L387.403 232.898L387.123 232.991C387.223 232.618 387.384 232.282 387.608 231.984C387.844 231.674 388.124 231.406 388.447 231.183C388.77 230.959 389.124 230.791 389.509 230.679C389.894 230.555 390.298 230.493 390.721 230.493C391.23 230.493 391.684 230.58 392.082 230.754C392.492 230.915 392.833 231.201 393.107 231.611C393.393 232.009 393.61 232.537 393.759 233.196L393.424 233.028L393.554 232.711C393.678 232.425 393.859 232.152 394.095 231.891C394.343 231.618 394.623 231.375 394.933 231.164C395.257 230.953 395.605 230.791 395.977 230.679C396.363 230.555 396.754 230.493 397.152 230.493C397.835 230.493 398.413 230.642 398.885 230.94C399.357 231.226 399.712 231.667 399.948 232.264C400.196 232.86 400.32 233.618 400.32 234.538V240.41H398.885V234.612C398.885 233.966 398.804 233.438 398.643 233.028C398.481 232.618 398.239 232.313 397.916 232.115C397.605 231.903 397.208 231.798 396.723 231.798C396.3 231.798 395.909 231.872 395.549 232.021C395.201 232.158 394.896 232.357 394.635 232.618C394.387 232.866 394.188 233.152 394.039 233.475C393.902 233.798 393.834 234.146 393.834 234.519V240.41H392.417V234.594C392.417 233.972 392.33 233.457 392.156 233.047C391.995 232.637 391.752 232.326 391.429 232.115C391.106 231.903 390.708 231.798 390.236 231.798C389.826 231.798 389.447 231.872 389.099 232.021C388.751 232.158 388.447 232.351 388.186 232.599C387.937 232.848 387.738 233.134 387.589 233.457C387.453 233.78 387.384 234.128 387.384 234.501V240.41H385.968ZM407.276 240.596C406.306 240.596 405.443 240.378 404.685 239.944C403.939 239.509 403.349 238.906 402.914 238.135C402.491 237.365 402.28 236.489 402.28 235.507C402.28 234.538 402.491 233.674 402.914 232.916C403.349 232.158 403.939 231.562 404.685 231.127C405.443 230.692 406.306 230.474 407.276 230.474C408.233 230.474 409.084 230.692 409.829 231.127C410.588 231.562 411.178 232.158 411.6 232.916C412.035 233.674 412.253 234.538 412.253 235.507C412.253 236.489 412.035 237.365 411.6 238.135C411.178 238.906 410.588 239.509 409.829 239.944C409.084 240.378 408.233 240.596 407.276 240.596ZM407.276 239.272C407.959 239.272 408.568 239.111 409.103 238.788C409.637 238.452 410.053 238.005 410.351 237.446C410.65 236.874 410.799 236.228 410.799 235.507C410.799 234.786 410.65 234.146 410.351 233.587C410.053 233.028 409.637 232.593 409.103 232.282C408.568 231.959 407.959 231.798 407.276 231.798C406.592 231.798 405.977 231.959 405.43 232.282C404.896 232.593 404.474 233.034 404.163 233.606C403.865 234.165 403.722 234.799 403.734 235.507C403.722 236.228 403.865 236.874 404.163 237.446C404.474 238.005 404.896 238.452 405.43 238.788C405.977 239.111 406.592 239.272 407.276 239.272ZM415.634 240.41V228.126H417.032V240.41H415.634ZM413.435 232.021V230.679H419.493V232.021H413.435ZM421.582 240.41V230.679H422.98V240.41H421.582ZM422.272 228.573C421.924 228.573 421.657 228.486 421.471 228.312C421.297 228.126 421.21 227.877 421.21 227.566C421.21 227.256 421.303 227.007 421.489 226.821C421.676 226.634 421.937 226.541 422.272 226.541C422.608 226.541 422.869 226.634 423.055 226.821C423.241 226.995 423.335 227.243 423.335 227.566C423.335 227.865 423.241 228.107 423.055 228.293C422.869 228.48 422.608 228.573 422.272 228.573ZM430.339 240.596C429.37 240.596 428.506 240.378 427.748 239.944C427.003 239.509 426.413 238.906 425.978 238.135C425.555 237.365 425.344 236.489 425.344 235.507C425.344 234.538 425.555 233.674 425.978 232.916C426.413 232.158 427.003 231.562 427.748 231.127C428.506 230.692 429.37 230.474 430.339 230.474C431.296 230.474 432.147 230.692 432.893 231.127C433.651 231.562 434.241 232.158 434.664 232.916C435.099 233.674 435.316 234.538 435.316 235.507C435.316 236.489 435.099 237.365 434.664 238.135C434.241 238.906 433.651 239.509 432.893 239.944C432.147 240.378 431.296 240.596 430.339 240.596ZM430.339 239.272C431.023 239.272 431.632 239.111 432.166 238.788C432.7 238.452 433.117 238.005 433.415 237.446C433.713 236.874 433.862 236.228 433.862 235.507C433.862 234.786 433.713 234.146 433.415 233.587C433.117 233.028 432.7 232.593 432.166 232.282C431.632 231.959 431.023 231.798 430.339 231.798C429.656 231.798 429.041 231.959 428.494 232.282C427.96 232.593 427.537 233.034 427.226 233.606C426.928 234.165 426.785 234.799 426.798 235.507C426.785 236.228 426.928 236.874 427.226 237.446C427.537 238.005 427.96 238.452 428.494 238.788C429.041 239.111 429.656 239.272 430.339 239.272ZM437.356 240.41V230.679H438.735L438.791 232.711L438.568 232.804C438.692 232.382 438.934 231.997 439.295 231.649C439.655 231.301 440.084 231.021 440.581 230.81C441.09 230.586 441.612 230.474 442.147 230.474C442.867 230.474 443.47 230.617 443.955 230.903C444.439 231.189 444.806 231.63 445.054 232.226C445.303 232.823 445.427 233.581 445.427 234.501V240.41H444.011V234.575C444.011 233.929 443.924 233.401 443.75 232.991C443.588 232.568 443.333 232.258 442.985 232.059C442.637 231.86 442.209 231.767 441.699 231.779C441.277 231.779 440.885 231.854 440.525 232.003C440.164 232.14 439.854 232.332 439.593 232.581C439.332 232.829 439.127 233.115 438.978 233.438C438.829 233.761 438.754 234.109 438.754 234.482V240.41H438.064C437.977 240.41 437.878 240.41 437.766 240.41C437.654 240.41 437.518 240.41 437.356 240.41Z"
    fill="#6A6C72" />
  <path
    d="M277.498 102.382C277.498 97.2921 273.369 93.1417 268.285 93.396C239.129 94.8549 210.689 103.222 185.332 117.862C157.31 134.04 134.04 157.31 117.862 185.332C101.683 213.354 93.166 245.141 93.166 277.498C93.166 306.778 100.14 335.591 113.455 361.57C115.776 366.1 121.435 367.601 125.844 365.055L189.698 328.189C194.106 325.644 195.57 320.022 193.478 315.382C188.123 303.506 185.332 290.595 185.332 277.498C185.332 261.319 189.591 245.426 197.68 231.415C205.769 217.404 217.404 205.769 231.415 197.68C242.758 191.131 255.334 187.093 268.297 185.792C273.361 185.284 277.498 181.205 277.498 176.115V102.382Z"
    fill="white" stroke="#B8B8B8" stroke-width="1.84331" />
  <path
    d="M108.276 243.516V242.137H110.382V231.848H108.276V230.468H113.942V231.848H111.836V242.137H113.942V243.516H108.276ZM116.614 243.516V233.786H117.993L118.049 235.818L117.826 235.911C117.95 235.489 118.192 235.104 118.553 234.756C118.913 234.408 119.342 234.128 119.839 233.917C120.348 233.693 120.87 233.581 121.404 233.581C122.125 233.581 122.728 233.724 123.213 234.01C123.697 234.296 124.064 234.737 124.312 235.333C124.561 235.93 124.685 236.688 124.685 237.608V243.516H123.269V237.682C123.269 237.036 123.182 236.508 123.008 236.098C122.846 235.675 122.591 235.364 122.243 235.166C121.895 234.967 121.467 234.874 120.957 234.886C120.535 234.886 120.143 234.961 119.783 235.11C119.422 235.246 119.112 235.439 118.851 235.688C118.59 235.936 118.385 236.222 118.236 236.545C118.087 236.868 118.012 237.216 118.012 237.589V243.516H117.322C117.235 243.516 117.136 243.516 117.024 243.516C116.912 243.516 116.776 243.516 116.614 243.516ZM128.696 243.516V231.233H130.094V243.516H128.696ZM126.496 235.128V233.786H132.555V235.128H126.496ZM138.467 243.703C137.498 243.703 136.634 243.492 135.876 243.069C135.131 242.647 134.547 242.056 134.124 241.298C133.702 240.54 133.49 239.67 133.49 238.689C133.49 237.931 133.609 237.247 133.845 236.638C134.081 236.017 134.41 235.476 134.833 235.017C135.268 234.557 135.783 234.203 136.38 233.954C136.976 233.693 137.622 233.563 138.318 233.563C138.977 233.563 139.573 233.681 140.108 233.917C140.655 234.153 141.121 234.482 141.506 234.905C141.903 235.315 142.202 235.806 142.4 236.377C142.599 236.949 142.686 237.576 142.661 238.26L142.643 238.912H134.534L134.329 237.738H141.58L141.245 238.055V237.608C141.22 237.16 141.089 236.731 140.853 236.321C140.617 235.899 140.282 235.557 139.847 235.296C139.424 235.035 138.915 234.905 138.318 234.905C137.622 234.905 137.02 235.048 136.51 235.333C136.001 235.607 135.609 236.017 135.336 236.564C135.062 237.11 134.926 237.788 134.926 238.595C134.926 239.366 135.075 240.037 135.373 240.609C135.671 241.168 136.094 241.603 136.641 241.913C137.2 242.224 137.871 242.379 138.654 242.379C139.114 242.379 139.567 242.305 140.015 242.156C140.474 241.994 140.978 241.684 141.524 241.224L142.251 242.23C141.966 242.516 141.624 242.771 141.226 242.995C140.829 243.206 140.394 243.38 139.921 243.516C139.449 243.641 138.964 243.703 138.467 243.703ZM144.684 243.516V229.723H146.082V243.516H144.684ZM148.871 243.516V229.723H150.269V243.516H148.871ZM157.126 243.703C156.157 243.703 155.293 243.492 154.535 243.069C153.789 242.647 153.205 242.056 152.783 241.298C152.36 240.54 152.149 239.67 152.149 238.689C152.149 237.931 152.267 237.247 152.503 236.638C152.739 236.017 153.068 235.476 153.491 235.017C153.926 234.557 154.442 234.203 155.038 233.954C155.635 233.693 156.281 233.563 156.977 233.563C157.635 233.563 158.232 233.681 158.766 233.917C159.313 234.153 159.779 234.482 160.164 234.905C160.562 235.315 160.86 235.806 161.059 236.377C161.258 236.949 161.345 237.576 161.32 238.26L161.301 238.912H153.193L152.988 237.738H160.239L159.903 238.055V237.608C159.878 237.16 159.748 236.731 159.512 236.321C159.276 235.899 158.94 235.557 158.505 235.296C158.083 235.035 157.573 234.905 156.977 234.905C156.281 234.905 155.678 235.048 155.169 235.333C154.659 235.607 154.268 236.017 153.994 236.564C153.721 237.11 153.584 237.788 153.584 238.595C153.584 239.366 153.733 240.037 154.032 240.609C154.33 241.168 154.752 241.603 155.299 241.913C155.858 242.224 156.529 242.379 157.312 242.379C157.772 242.379 158.226 242.305 158.673 242.156C159.133 241.994 159.636 241.684 160.183 241.224L160.91 242.23C160.624 242.516 160.282 242.771 159.885 242.995C159.487 243.206 159.052 243.38 158.58 243.516C158.108 243.641 157.623 243.703 157.126 243.703ZM167.406 243.703C166.487 243.703 165.667 243.485 164.946 243.05C164.225 242.603 163.653 242 163.231 241.242C162.821 240.472 162.616 239.602 162.616 238.633C162.616 237.663 162.821 236.8 163.231 236.042C163.653 235.271 164.225 234.669 164.946 234.234C165.667 233.799 166.493 233.581 167.425 233.581C168.258 233.581 169.016 233.749 169.699 234.085C170.383 234.408 170.929 234.861 171.339 235.445L170.519 236.452C170.283 236.141 169.997 235.868 169.662 235.632C169.339 235.396 168.985 235.215 168.599 235.091C168.227 234.954 167.854 234.886 167.481 234.886C166.822 234.886 166.232 235.054 165.71 235.389C165.188 235.712 164.772 236.154 164.461 236.713C164.163 237.272 164.014 237.912 164.014 238.633C164.014 239.353 164.163 240 164.461 240.571C164.772 241.131 165.188 241.572 165.71 241.895C166.232 242.218 166.816 242.379 167.462 242.379C167.835 242.379 168.202 242.324 168.562 242.212C168.922 242.087 169.264 241.913 169.587 241.69C169.91 241.466 170.209 241.186 170.482 240.851L171.302 241.858C170.88 242.417 170.314 242.864 169.606 243.2C168.898 243.535 168.164 243.703 167.406 243.703ZM174.459 243.516V231.233H175.857V243.516H174.459ZM172.26 235.128V233.786H178.318V235.128H172.26Z"
    fill="#6A6C72" />
  <circle cx="277.497" cy="277.497" r="91.2444" fill="white" />
  <circle cx="278" cy="278" r="49" fill="#00CCBE" />
  <path
    d="M250.276 347V333.952H251.692L256.707 342.098L256.036 342.079L261.106 333.952H262.429V347H260.975V341.035C260.975 339.917 260.994 338.91 261.031 338.015C261.069 337.121 261.137 336.232 261.236 335.35L261.497 335.872L256.819 343.216H255.812L251.264 335.965L251.469 335.35C251.568 336.182 251.637 337.04 251.674 337.922C251.711 338.792 251.73 339.83 251.73 341.035V347H250.276ZM270.023 347.186C269.054 347.186 268.19 346.969 267.432 346.534C266.687 346.099 266.096 345.496 265.661 344.726C265.239 343.955 265.028 343.079 265.028 342.098C265.028 341.128 265.239 340.265 265.661 339.507C266.096 338.749 266.687 338.152 267.432 337.717C268.19 337.282 269.054 337.065 270.023 337.065C270.98 337.065 271.831 337.282 272.577 337.717C273.335 338.152 273.925 338.749 274.348 339.507C274.783 340.265 275 341.128 275 342.098C275 343.079 274.783 343.955 274.348 344.726C273.925 345.496 273.335 346.099 272.577 346.534C271.831 346.969 270.98 347.186 270.023 347.186ZM270.023 345.863C270.707 345.863 271.316 345.701 271.85 345.378C272.384 345.043 272.801 344.595 273.099 344.036C273.397 343.465 273.546 342.818 273.546 342.098C273.546 341.377 273.397 340.737 273.099 340.178C272.801 339.618 272.384 339.184 271.85 338.873C271.316 338.55 270.707 338.388 270.023 338.388C269.34 338.388 268.725 338.55 268.178 338.873C267.643 339.184 267.221 339.625 266.91 340.196C266.612 340.756 266.469 341.389 266.482 342.098C266.469 342.818 266.612 343.465 266.91 344.036C267.221 344.595 267.643 345.043 268.178 345.378C268.725 345.701 269.34 345.863 270.023 345.863ZM278.382 347V334.716H279.78V347H278.382ZM276.182 338.612V337.27H282.24V338.612H276.182ZM284.33 347V337.27H285.728V347H284.33ZM285.02 335.163C284.672 335.163 284.404 335.076 284.218 334.903C284.044 334.716 283.957 334.468 283.957 334.157C283.957 333.846 284.05 333.598 284.237 333.411C284.423 333.225 284.684 333.132 285.02 333.132C285.355 333.132 285.616 333.225 285.802 333.411C285.989 333.585 286.082 333.834 286.082 334.157C286.082 334.455 285.989 334.697 285.802 334.884C285.616 335.07 285.355 335.163 285.02 335.163ZM291.801 347L287.7 337.27H289.247L292.49 345.229L292.118 345.434L295.678 337.27H297.169L292.807 347H291.801ZM302.825 347.186C301.856 347.186 300.992 346.975 300.234 346.553C299.489 346.13 298.905 345.54 298.482 344.782C298.06 344.024 297.848 343.154 297.848 342.172C297.848 341.414 297.966 340.731 298.202 340.122C298.439 339.5 298.768 338.96 299.19 338.5C299.625 338.04 300.141 337.686 300.737 337.438C301.334 337.177 301.98 337.046 302.676 337.046C303.335 337.046 303.931 337.164 304.466 337.4C305.012 337.636 305.478 337.966 305.864 338.388C306.261 338.798 306.559 339.289 306.758 339.861C306.957 340.432 307.044 341.06 307.019 341.743L307.001 342.396H298.892L298.687 341.222H305.938L305.603 341.538V341.091C305.578 340.644 305.447 340.215 305.211 339.805C304.975 339.382 304.64 339.041 304.205 338.78C303.782 338.519 303.273 338.388 302.676 338.388C301.98 338.388 301.377 338.531 300.868 338.817C300.358 339.09 299.967 339.5 299.694 340.047C299.42 340.594 299.284 341.271 299.284 342.079C299.284 342.849 299.433 343.52 299.731 344.092C300.029 344.651 300.452 345.086 300.998 345.397C301.558 345.708 302.229 345.863 303.012 345.863C303.471 345.863 303.925 345.788 304.372 345.639C304.832 345.478 305.335 345.167 305.882 344.707L306.609 345.714C306.323 346 305.982 346.254 305.584 346.478C305.186 346.689 304.751 346.863 304.279 347C303.807 347.124 303.322 347.186 302.825 347.186Z"
    fill="#6A6C72" />
  <defs>
    <clipPath id="clip0_6_6645">
      <rect width="368.664" height="136.406" fill="white" transform="translate(93.165 325.422)" />
    </clipPath>
  </defs>
</svg>